<svg width="65" height="65" viewBox="0 0 65 65" fill="none" xmlns="http://www.w3.org/2000/svg">
<path d="M32.4993 5.41602C17.5493 5.41602 5.41602 17.5493 5.41602 32.4993C5.41602 47.4493 17.5493 59.5827 32.4993 59.5827C47.4493 59.5827 59.5827 47.4493 59.5827 32.4993C59.5827 17.5493 47.4493 5.41602 32.4993 5.41602ZM32.4993 54.166C20.5556 54.166 10.8327 44.4431 10.8327 32.4993C10.8327 20.5556 20.5556 10.8327 32.4993 10.8327C44.4431 10.8327 54.166 20.5556 54.166 32.4993C54.166 44.4431 44.4431 54.166 32.4993 54.166ZM44.9306 20.5285L27.0827 38.3764L20.0681 31.3889L16.2493 35.2077L27.0827 46.041L48.7493 24.3743L44.9306 20.5285Z" fill="#00966D"/>
</svg>
