<svg width="16" height="14" viewBox="0 0 16 14" fill="none" xmlns="http://www.w3.org/2000/svg">
<path d="M7.99996 2.98385C10.5266 2.98385 12.78 4.40385 13.88 6.65052C13.4866 7.46385 12.9333 8.16385 12.2733 8.73052L13.2133 9.67052C14.14 8.85052 14.8733 7.82385 15.3333 6.65052C14.18 3.72385 11.3333 1.65052 7.99996 1.65052C7.15329 1.65052 6.33996 1.78385 5.57329 2.03052L6.67329 3.13052C7.10663 3.04385 7.54663 2.98385 7.99996 2.98385ZM7.28663 3.74385L8.66663 5.12385C9.04663 5.29052 9.35329 5.59719 9.51996 5.97719L10.9 7.35719C10.9533 7.13052 10.9933 6.89052 10.9933 6.64385C11 4.99052 9.65329 3.65052 7.99996 3.65052C7.75329 3.65052 7.51996 3.68385 7.28663 3.74385ZM1.33996 1.56385L3.12663 3.35052C2.03996 4.20385 1.17996 5.33719 0.666626 6.65052C1.81996 9.57719 4.66663 11.6505 7.99996 11.6505C9.01329 11.6505 9.98663 11.4572 10.88 11.1039L13.16 13.3839L14.1 12.4439L2.27996 0.617188L1.33996 1.56385ZM6.33996 6.56385L8.07996 8.30385C8.05329 8.31052 8.02663 8.31719 7.99996 8.31719C7.07996 8.31719 6.33329 7.57052 6.33329 6.65052C6.33329 6.61719 6.33996 6.59719 6.33996 6.56385ZM4.07329 4.29719L5.23996 5.46385C5.08663 5.83052 4.99996 6.23052 4.99996 6.65052C4.99996 8.30385 6.34663 9.65052 7.99996 9.65052C8.41996 9.65052 8.81996 9.56385 9.17996 9.41052L9.83329 10.0639C9.24663 10.2239 8.63329 10.3172 7.99996 10.3172C5.47329 10.3172 3.21996 8.89719 2.11996 6.65052C2.58663 5.69719 3.26663 4.91052 4.07329 4.29719Z" fill="#606060"/>
</svg>
