<svg width="35" height="35" viewBox="0 0 35 35" fill="none" xmlns="http://www.w3.org/2000/svg">
<rect width="35" height="35" fill="white"/>
<path d="M17.8569 14.3164V21.0937H27.4674C27.0454 23.2732 25.779 25.1187 23.8796 26.3596L29.6751 30.7665C33.0518 27.712 34.9999 23.2256 34.9999 17.8961C34.9999 16.6552 34.8863 15.4619 34.6752 14.3166L17.8569 14.3164Z" fill="#4285F4"/>
<path d="M7.84938 20.832L6.54227 21.8126L1.91553 25.3443C4.85386 31.0556 10.8762 35.0011 17.8567 35.0011C22.6781 35.0011 26.7203 33.442 29.6749 30.7694L23.8794 26.3625C22.2885 27.4125 20.2593 28.049 17.8567 28.049C13.2139 28.049 9.26913 24.9785 7.85668 20.8421L7.84938 20.832Z" fill="#34A853"/>
<path d="M1.91546 9.65625C0.697986 12.0107 0 14.6675 0 17.4993C0 20.3311 0.697986 22.9879 1.91546 25.3424C1.91546 25.3582 7.85718 20.8242 7.85718 20.8242C7.50004 19.7742 7.28894 18.6606 7.28894 17.4991C7.28894 16.3376 7.50004 15.2241 7.85718 14.1741L1.91546 9.65625Z" fill="#FBBC05"/>
<path d="M17.8572 6.96816C20.4871 6.96816 22.8247 7.85905 24.6916 9.57725L29.8053 4.56596C26.7046 1.7342 22.6787 0 17.8572 0C10.8766 0 4.85392 3.92953 1.91559 9.65681L7.85713 14.175C9.26939 10.0386 13.2143 6.96816 17.8572 6.96816Z" fill="#EA4335"/>
</svg>
