<svg width="24" height="24" viewBox="0 0 24 24" fill="none" xmlns="http://www.w3.org/2000/svg">
<path d="M11.083 3.18V20.82C11.083 21.46 10.493 21.94 9.87298 21.8C5.40298 20.8 2.08298 16.79 2.08298 12C2.08298 7.21 5.40298 3.2 9.87298 2.2C10.493 2.06 11.083 2.54 11.083 3.18ZM13.113 3.18V9.99C13.113 10.54 13.563 10.99 14.113 10.99H20.903C21.543 10.99 22.023 10.4 21.883 9.77C21.033 6.01 18.083 3.05 14.333 2.2C13.703 2.06 13.113 2.54 13.113 3.18ZM13.113 14.01V20.82C13.113 21.46 13.703 21.94 14.333 21.8C18.093 20.95 21.043 17.98 21.893 14.22C22.033 13.6 21.543 13 20.913 13H14.123C13.563 13.01 13.113 13.46 13.113 14.01Z" fill="#0C0C0C"/>
</svg>
