<svg width="100" height="40" viewBox="0 0 100 40" fill="none" xmlns="http://www.w3.org/2000/svg">
<path fill-rule="evenodd" clip-rule="evenodd" d="M39.777 32.1378V33.7777V35.4175H38.9385V35.0193C38.6726 35.3147 38.269 35.5 37.7205 35.5C36.6391 35.5 35.7913 34.7798 35.7913 33.7777C35.7913 32.7763 36.6391 32.0553 37.7205 32.0553C38.269 32.0553 38.6726 32.2407 38.9385 32.536V32.1378H39.777ZM37.8248 32.7281C37.099 32.7281 36.6548 33.2016 36.6548 33.7781C36.6548 34.3546 37.099 34.8282 37.8248 34.8282C38.5183 34.8282 38.9865 34.375 38.9865 33.7781C38.9865 33.1812 38.5183 32.7281 37.8248 32.7281ZM68.1128 33.7781C68.1128 33.2016 68.557 32.7281 69.2828 32.7281C69.9773 32.7281 70.4446 33.1812 70.4446 33.7781C70.4446 34.375 69.9773 34.8282 69.2828 34.8282C68.557 34.8282 68.1128 34.3546 68.1128 33.7781ZM71.236 30.8207V33.7777V35.4175H70.3965V35.0193C70.1306 35.3147 69.727 35.5 69.1785 35.5C68.0971 35.5 67.2494 34.7798 67.2494 33.7777C67.2494 32.7763 68.0971 32.0553 69.1785 32.0553C69.727 32.0553 70.1306 32.2407 70.3965 32.536V30.8207H71.236ZM50.1857 32.6927C50.7259 32.6927 51.0731 32.981 51.1618 33.4883H49.1606C49.2502 33.0147 49.5882 32.6927 50.1857 32.6927ZM48.2813 33.7777C48.2813 32.7551 49.0718 32.0553 50.2021 32.0553C51.2825 32.0553 52.025 32.7551 52.0333 33.7777C52.0333 33.8735 52.025 33.963 52.0167 34.0518H49.153C49.274 34.6424 49.7662 34.8552 50.3064 34.8552C50.6934 34.8552 51.1052 34.7311 51.4284 34.512L51.8394 35.0406C51.3712 35.3767 50.8393 35.5 50.2584 35.5C49.1041 35.5 48.2813 34.8206 48.2813 33.7777ZM60.3271 33.7781C60.3271 33.2016 60.7713 32.7281 61.4972 32.7281C62.1907 32.7281 62.6589 33.1812 62.6589 33.7781C62.6589 34.375 62.1907 34.8282 61.4972 34.8282C60.7713 34.8282 60.3271 34.3546 60.3271 33.7781ZM63.4493 32.1378V33.7777V35.4175L62.6108 35.4175V35.0193C62.3439 35.3147 61.9413 35.5 61.3927 35.5C60.3113 35.5 59.4636 34.7798 59.4636 33.7777C59.4636 32.7763 60.3113 32.0553 61.3927 32.0553C61.9413 32.0553 62.3439 32.2407 62.6108 32.536V32.1378H63.4493ZM55.5914 33.7777C55.5914 34.7727 56.4059 35.5 57.6489 35.5C58.2298 35.5 58.6167 35.39 59.036 35.1089L58.6333 34.5324C58.3184 34.7248 57.9878 34.8277 57.624 34.8277C56.9545 34.8206 56.4622 34.4091 56.4622 33.7777C56.4622 33.1462 56.9545 32.7347 57.624 32.7276C57.9878 32.7276 58.3184 32.8305 58.6333 33.0229L59.036 32.4464C58.6167 32.1653 58.2298 32.0553 57.6489 32.0553C56.4059 32.0553 55.5914 32.7826 55.5914 33.7777ZM65.3858 32.5364C65.6037 32.2482 65.9187 32.0558 66.4025 32.0558C66.5725 32.0558 66.8144 32.0833 67 32.1453L66.7415 32.8176C66.5642 32.7556 66.3869 32.7351 66.2169 32.7351C65.6684 32.7351 65.3941 33.0367 65.3941 33.5794V35.418H64.5547V32.1383L65.3858 32.1383V32.5364ZM43.9243 32.3985C43.5207 32.1723 42.9648 32.0553 42.3516 32.0553C41.3746 32.0553 40.7457 32.4535 40.7457 33.1054C40.7457 33.6402 41.2139 33.9701 42.0764 34.073L42.4726 34.1209C42.9325 34.1759 43.1495 34.2787 43.1495 34.4641C43.1495 34.7178 42.8429 34.8623 42.2703 34.8623C41.6895 34.8623 41.2702 34.7044 40.9876 34.5191L40.5924 35.0743C41.0523 35.3626 41.6331 35.5 42.262 35.5C43.3757 35.5 44.0212 35.0539 44.0212 34.4295C44.0212 33.8531 43.5133 33.5515 42.6739 33.4486L42.2786 33.3999C41.9157 33.3591 41.6248 33.2978 41.6248 33.0779C41.6248 32.8376 41.8991 32.6938 42.359 32.6938C42.8512 32.6938 43.3277 32.8517 43.5613 32.975L43.9243 32.3985ZM53.7281 32.5364C53.9451 32.2482 54.26 32.0558 54.7439 32.0558C54.9138 32.0558 55.1558 32.0833 55.3414 32.1453L55.0828 32.8176C54.9055 32.7556 54.7282 32.7351 54.5583 32.7351C54.0098 32.7351 53.7355 33.0367 53.7355 33.5794V35.418H52.897V32.1383H53.7281V32.5364ZM47.5876 32.1378H46.2162V31.1427H45.3685V32.1378H44.5863V32.7897H45.3685V34.2858C45.3685 35.0468 45.7157 35.5 46.7075 35.5C47.0714 35.5 47.4906 35.4042 47.7566 35.2463L47.5146 34.6353C47.2644 34.7586 46.9901 34.8206 46.7722 34.8206C46.3529 34.8206 46.2162 34.6007 46.2162 34.2717V32.7897H47.5876V32.1378ZM35.0497 33.3595V35.418H34.202V33.5928C34.202 33.0367 33.9277 32.7281 33.3552 32.7281C32.7983 32.7281 32.4114 33.0305 32.4114 33.5999V35.418H31.5636V33.5928C31.5636 33.0367 31.282 32.7281 30.7251 32.7281C30.1516 32.7281 29.7804 33.0305 29.7804 33.5999V35.418H28.9336V32.1383H29.773V32.5427C30.0879 32.1587 30.4906 32.0558 30.9024 32.0558C31.4916 32.0558 31.9109 32.2757 32.1768 32.6393C32.5324 32.1791 33.0403 32.0487 33.5325 32.0558C34.4689 32.0629 35.0497 32.5844 35.0497 33.3595Z" fill="#231F20"/>
<path d="M56.3553 26.5646H43.6465V7.14062H56.3553V26.5646Z" fill="#FF5F00"/>
<path d="M44.2132 16.8538C44.2132 12.9136 46.3536 9.40371 49.6867 7.14182C47.2493 5.48781 44.1731 4.50059 40.83 4.50059C32.9156 4.50059 26.5 10.0312 26.5 16.8538C26.5 23.6764 32.9156 29.207 40.83 29.207C44.1731 29.207 47.2493 28.2198 49.6867 26.5658C46.3536 24.3039 44.2132 20.7941 44.2132 16.8538Z" fill="#EB001B"/>
<path d="M73.1867 17.0188C73.1867 23.7502 66.7713 29.207 58.8572 29.207C55.5142 29.207 52.4382 28.233 50 26.6011C53.3339 24.3694 55.4741 20.9064 55.4741 17.0188C55.4741 13.1311 53.3339 9.66813 50 7.43644C52.4382 5.80452 55.5142 4.83048 58.8572 4.83048C66.7713 4.83048 73.1867 10.2873 73.1867 17.0188Z" fill="#F79E1B"/>
</svg>
