<svg width="100" height="40" viewBox="0 0 100 40" fill="none" xmlns="http://www.w3.org/2000/svg">
<path fill-rule="evenodd" clip-rule="evenodd" d="M24.1698 13H18.8744C18.512 13 18.2038 13.2019 18.1472 13.4764L16.0055 23.8897C15.963 24.0953 16.1706 24.2804 16.4423 24.2804H18.9703C19.3327 24.2804 19.6409 24.0787 19.6975 23.8037L20.275 20.995C20.3308 20.72 20.6396 20.5181 21.0014 20.5181H22.6776C26.1657 20.5181 28.1788 19.2236 28.7048 16.6585C28.9416 15.5361 28.7147 14.6544 28.0294 14.0369C27.2768 13.3588 25.9419 13 24.1698 13ZM24.7806 16.8037C24.4911 18.2609 23.0393 18.2609 21.6356 18.2609H20.8364L21.3971 15.5395C21.4305 15.375 21.6161 15.2539 21.833 15.2539H22.1993C23.1555 15.2539 24.0575 15.2539 24.5236 15.6719C24.8016 15.9212 24.8867 16.2918 24.7806 16.8037Z" fill="#28356A"/>
<path fill-rule="evenodd" clip-rule="evenodd" d="M40.1342 16.6791H37.5985C37.3825 16.6791 37.1957 16.8001 37.1625 16.9646L37.0502 17.5085L36.873 17.3114C36.3241 16.7003 35.0998 16.4961 33.8781 16.4961C31.0758 16.4961 28.6825 18.1238 28.2165 20.4069C27.9742 21.5458 28.3186 22.6349 29.1612 23.3943C29.9339 24.0925 31.0396 24.3836 32.355 24.3836C34.6129 24.3836 35.8647 23.2702 35.8647 23.2702L35.7517 23.8106C35.7092 24.0172 35.9168 24.2025 36.187 24.2025H38.471C38.8343 24.2025 39.1409 24.0006 39.1982 23.7256L40.5687 17.0698C40.612 16.8648 40.4051 16.6791 40.1342 16.6791ZM36.5995 20.464C36.3549 21.5749 35.2052 22.3207 33.7386 22.3207C33.0023 22.3207 32.4139 22.1396 32.0359 21.7964C31.6611 21.4556 31.5189 20.9704 31.6379 20.4301C31.8665 19.3286 33.0355 18.5584 34.4797 18.5584C35.1998 18.5584 35.7851 18.742 36.1707 19.088C36.557 19.4377 36.7103 19.9259 36.5995 20.464Z" fill="#28356A"/>
<path fill-rule="evenodd" clip-rule="evenodd" d="M53.4435 16.8438H50.8952C50.6521 16.8438 50.4237 16.9364 50.286 17.0914L46.7714 21.0614L45.2817 17.2463C45.188 17.0076 44.9008 16.8438 44.5755 16.8438H42.0716C41.7671 16.8438 41.5559 17.0718 41.6526 17.2915L44.4595 23.6082L41.8207 26.465C41.6131 26.6901 41.8222 26.9995 42.1807 26.9995H44.7258C44.9674 26.9995 45.1934 26.9091 45.3305 26.7573L53.8057 17.3752C54.0087 17.1508 53.8003 16.8438 53.4435 16.8438Z" fill="#28356A"/>
<path fill-rule="evenodd" clip-rule="evenodd" d="M61.9391 13H56.6431C56.2816 13 55.9734 13.2019 55.9168 13.4764L53.7751 23.8897C53.7326 24.0953 53.9401 24.2804 54.2104 24.2804H56.9281C57.1803 24.2804 57.3963 24.1392 57.4358 23.9468L58.0437 20.995C58.0994 20.72 58.4085 20.5181 58.77 20.5181H60.4457C63.9344 20.5181 65.9468 19.2236 66.4734 16.6585C66.7111 15.5361 66.4827 14.6544 65.7974 14.0369C65.0455 13.3588 63.7114 13 61.9391 13ZM62.5503 16.8037C62.2614 18.2609 60.8096 18.2609 59.4051 18.2609H58.6069L59.1682 15.5395C59.2014 15.375 59.3858 15.2539 59.6033 15.2539H59.9696C60.925 15.2539 61.8278 15.2539 62.2939 15.6719C62.5719 15.9212 62.6563 16.2918 62.5503 16.8037Z" fill="#298FC2"/>
<path fill-rule="evenodd" clip-rule="evenodd" d="M77.8984 16.6791H75.3642C75.1466 16.6791 74.9616 16.8001 74.9291 16.9646L74.8168 17.5085L74.6387 17.3114C74.0898 16.7003 72.8664 16.4961 71.6444 16.4961C68.8424 16.4961 66.4499 18.1238 65.9839 20.4069C65.7423 21.5458 66.0852 22.6349 66.9275 23.3943C67.702 24.0925 68.8059 24.3836 70.1215 24.3836C72.3792 24.3836 73.6313 23.2702 73.6313 23.2702L73.5183 23.8106C73.4758 24.0172 73.6831 24.2025 73.9551 24.2025H76.2384C76.5999 24.2025 76.9081 24.0006 76.9647 23.7256L78.3359 17.0698C78.3777 16.8648 78.1702 16.6791 77.8984 16.6791ZM74.3638 20.464C74.1207 21.5749 72.9692 22.3207 71.5027 22.3207C70.7679 22.3207 70.178 22.1396 69.8 21.7964C69.4254 21.4556 69.2844 20.9704 69.402 20.4301C69.6321 19.3286 70.7996 18.5584 72.2438 18.5584C72.9638 18.5584 73.5492 18.742 73.9348 19.088C74.3226 19.4377 74.4759 19.9259 74.3638 20.464Z" fill="#298FC2"/>
<path fill-rule="evenodd" clip-rule="evenodd" d="M80.677 13.2862L78.5036 23.8902C78.4611 24.0958 78.6684 24.2809 78.9387 24.2809H81.1237C81.487 24.2809 81.795 24.0792 81.8507 23.8042L83.9939 13.3914C84.0367 13.1858 83.8291 13 83.5589 13H81.1122C80.8962 13.0005 80.7104 13.1218 80.677 13.2862Z" fill="#298FC2"/>
</svg>
