<svg width="100" height="40" viewBox="0 0 100 40" fill="none" xmlns="http://www.w3.org/2000/svg">
<path fill-rule="evenodd" clip-rule="evenodd" d="M33.0007 26.8903H27.1157L22.7027 16.0295C22.4933 15.5299 22.0485 15.0882 21.3943 14.8801C19.7617 14.3569 17.9626 13.9406 16 13.7306V13.3125H25.4802C26.7886 13.3125 27.7699 13.9406 27.9335 14.6701L30.2232 22.5044L36.1053 13.3125H41.8267L33.0007 26.8903ZM45.0979 26.8903H39.5401L44.1166 13.3125H49.6745L45.0979 26.8903ZM56.865 17.0746C57.0286 16.3433 58.0099 15.9252 59.1548 15.9252C60.9538 15.8202 62.9136 16.0302 64.5491 16.5515L65.5304 13.6281C63.8949 13.21 62.0958 13 60.4632 13C55.0688 13 51.1436 14.8807 51.1436 17.4909C51.1436 19.4767 53.924 20.5193 55.8866 21.1474C58.0099 21.7737 58.8276 22.1919 58.6641 22.8182C58.6641 23.7576 57.0286 24.1758 55.3959 24.1758C53.4333 24.1758 51.4707 23.8626 49.6745 23.3395L48.6932 26.2647C50.6558 26.786 52.7791 26.996 54.7417 26.996C60.7903 27.0991 64.5491 25.2202 64.5491 22.4C64.5491 18.8485 56.865 18.6404 56.865 17.0746ZM84.0002 26.8903L79.5871 13.3125H74.847C73.8657 13.3125 72.8844 13.7306 72.5573 14.3569L64.3855 26.8903H70.1069L71.2489 24.9064H78.2787L78.9329 26.8903H84.0002ZM75.6648 16.9688L77.2975 22.086H72.7209L75.6648 16.9688Z" fill="#172B85"/>
</svg>
